
<svg xmlns="http://www.w3.org/2000/svg" viewBox="0 0 512 460" preserveAspectRatio="xMinYMin meet">
    <path d="M351 136v-1h-2v1h2zm12 28v1h1l1-2v-1l-2 2zm-47 37l-9-12c0-2 2-4 6-6l13-11c3-4 5-10 5-18v-1c-1-6-5-11-12-14-5-3-13-5-25-5-10 1-22 4-38 10l-15 10v1l2-1 1 1 1-1v1l-10 8 1 1h-1l-1-1-1 1 1 2-2-1-5 3 1-3 5-26v-1l-5-4v-2a705 705 0 0 1-63 76h-4l-1 2h2l-3 1-6 2h-2l-4 1h-4v1-1h-3l-13-15c0-2 3-5 9-8l16-14c4-5 6-13 7-23v-3c-1-7-6-13-17-18-6-4-16-6-32-6-13 1-29 5-50 13l-19 13v1l2-1 1 1h1l1-1v1l-14 11 1 1h-1l-1-1-2 1v1l2 1h-2c-3 0-6 2-9 6l1 2 4-4v2l-2 1 2 2a51 51 0 0 1 10-8l2 1h2c10-7 19-12 29-15v1l-4 4 1 2A882 882 0 0 1 2 301c4 0 6-1 7-2h1v1h4v1l-2 6-5 10h1c6-6 10-12 13-18 16-4 28-9 36-13 9-1 15-3 19-7v-1l-3 1h-1c7-1 11-3 13-4 12-10 21-16 28-20 12-10 21-19 24-27a79 79 0 0 0 2-1h3l1-1h3l5-1s-1 0 0 0h1-1 2v1l-21 35-5 6-2 8v-1l2-1v4l1 1-1 1h1c2-1 2-2 2-3h3l-1 3c8-8 28-38 43-58 0-2 8-5 24-9h1l-4 19-3 10-4 13-6 19-8 32h1l1-1h1l-1-1h3l2-3 1-4 3-10 4-10c2-8 4-12 5-13v1l-2 5-8 29v4h1c7-15 17-45 30-90 1-4 3-7 6-9l-1-1 3-2-4-2 7-28 2-2v2h-1l1 2 8-6 2 1h1c7-6 15-9 22-12v1l-3 3 1 2-10 25a680 680 0 0 1-38 81l5-2h1v1h1l1-1 1 1v1l-2 4-3 7v1h1c4-5 7-9 9-14 12-3 21-7 28-10 6-1 11-3 14-5v-1l-2 1h-1v-1c5 0 8-1 10-3l21-15c14-10 21-21 20-30zm-2 0v4l-1 2-1-7 2 1zM28 170l-1 1v-2h2l1 1h-2zM15 298l-4-1v-2l1-1 1 2 4-4h1c0 4-1 6-3 6zm136-142l-4-6v-2c1 0 3 2 4 6v2zm-2-15v2l-19-8c13 0 19 3 19 6zm-78 67l-2 1-1-1 3-1v1zm-2-40h1v2l-3 3v-2c2-1 2-2 2-3zm-5 13v3h-1v-3h1zm-3 5h1c0 2-1 3-2 3l1-3zm-2 6v1l-1 2h-1v-1l2-2zm-3 6v3h-1v-3h1zm-21 60l-2 7-1-1 3-6zm-4 9l-1 2v-1l1-1zm-1 17h2v1h-2l-1 1 1-2zm56-17c-11 5-17 9-19 11-12 4-18 7-18 8l-21 9-4-1c0-2 1-4 3-5l6 1 10-4v-1h-4l11-5h2l-5 3c0 1 0 2 1 1l4-2c5-1 18-8 40-21v1l-6 5zm-33 11c3 0 6-2 8-4l1 1-8 4h-1v-1zm54-41l-17 13-20 12c-20 11-32 17-37 17h-1l27-54c7-1 19-4 35-10l4-1c8-1 14 1 18 5l1 2c-3 9-7 14-10 16zm-33-19h3v1h-3v-1zm38-6h2l3 2v1c-2 0-4-1-5-3zm5-31c-2 3-6 6-14 11-3 0-12 4-29 11a5 5 0 0 0-3 0v-1l3-9c2-7 3-11 5-12l14-31c-1-2 2-3 8-4l2-1v2l12-1c11-1 16 1 17 6h1v-3h1c3 2 5 4 5 6l-3 7-1-2h-1l-1 4c-5 8-9 12-12 13l-4 4zm9 22l-3-1v-2h1l3 2-1 1zm8 11l2 1h-1v1l-1-2zm1 5v-1h2l-2 1zm4 4l5-1v1l-5 1v-1zm6 2l-6 1 4-2h3v1h-1zm5-1h-2l2-1 1 1h-1zm13-15l3-1v1h-3zm15 91v-1l1-1 1 1v1h-2zm11-87h-1l-5 2h-1l-1-1 7-2 2-1 1 1-2 1zm5-1v-1l1-1 5-1v1l-6 2zm1-10h-4l11-4h1l1 1-9 3zm13-15c-1 6-3 10-6 11l-1-1-3 1-1 1h-2l-1-2 15-20 1 1c0 1 0 5-2 9zm23-20v-1h2v1h-2zm-9 97l-3-1v-2l2 1 2-3 1 1-2 4zm103-108l-3-5v-1l3 5v1zm-1-11l-1 1-14-6c10 1 14 2 15 5zm-60 51h-2v-1h2v1zm-1-31v2l-1 2v-1l1-3zm-4 10v2h-1v-2h1zm-3 4h1l-1 2v-2zm-1 5l-1 2h-1v-1l2-1zm-2 4v2l-1 1v-3h1zm-16 46l-2 5v-1l2-4zm-3 6v1l-1 1v-1l1-1zm-1 14h2l-2 1h-1l1-1zm43-13c-9 4-14 6-15 8l-14 6-15 7-3-1 2-4 4 1 8-3v-1l-3 1 9-5h1v1l-4 2 1 1 3-2 30-16v1l-4 4zm-26 8c3 0 5-1 7-3l1 1-7 3h-1v-1zm41-32l-12 11-16 9-28 13 20-41c6-1 15-3 27-8l3-1c6 0 11 1 14 4v2c-2 6-5 10-8 11zm-24-14h2v1h-2v-1zm28-4h2l2 1v1l-4-2zm4-23l-11 8-21 8h-2v-1c-1-2 0-4 2-7l3-9 11-23c0-2 2-3 6-4h2v2l8-2c9 0 13 1 13 5h1v-2h1c3 1 4 3 4 5l-2 5-1-2h-1v3c-5 7-8 10-10 10l-3 4zm5 15l-1-1h1l3 1-1 1-2-1zm-176 92h-1l-1 1 1 1 1-1v-1zm-4-7l1-1-1 1zm26-64h2l-1-1h-1v1zm344 29l-16 3h3l13-2v-1zm-62 8v1-1zm-7-25h-1l-2 4 3-4zm71 17v1h2v-1h-2zm-78 10l-3-1v2l15-2-12 1zm-7-34h-2l1 1 1-1zm92 17h1v-2c-3 0-4 0-6 2v-1h-3l-1-1h-1l-4 1-1-1-1 1h-6l1 1h5l-10 2h-2v-1h3l3-1v-1l-11 1v-1l9-2v1a2 2 0 0 1 2-1c4 0 5 1 11-1h2l2-2v-1c-11 3-14 2-17 3h-4l-1 1-1-1-10 2v-1c-5 1-4 2-10 2l-2 1v-1l-4 1h-4l-4 1v-1l-1 1h-4l-8 1h-3l-5-1 3-5v1l2-2v-1l-1 1v-3l2-4v1h1v-1l-1-1 2-1h-1v-2l4-10h1l1-1h-1a4 4 0 0 1 0-2c2-2 3-3 2-5h1l3-6 10-25c8-23 8-25 9-30h-1v2l-2-1 3-7 1 3h1l1-4-2-1v1-5h-1l-1-2h-6v-1l3-2 2 1 1-1h2v-1h-6l-1 1v-1l-43 4h-8l-3 1h-7a734 734 0 0 0-2 2h-1l-17 2h-3l-5 1-8 4 1 1 1-1h3v3c-3 1-5 3-5 5l-6 4v1l2-1 1 2v2l-21 45c-12 28-19 43-19 46-5 1-7 3-8 5l4 1v1l-1 2v2c0 2 3 2 9 3l1-1-1 8h1l3-7h1l2 2-8 18v1h1l10-23 38-4h3l1-1 1 1 14-1c3-1 5-2 5-4l6-1h2l6-1c1-2 1-4 3-4l-1-1-4 1h-7l-9 1h-4l-3-1-1 1h-2c12-2 18-3 18-5l1 1 3-1v-1l-29 1h-4l-2 1-2-1-8 2h-18a149 149 0 0 1 18-39h2l4-1h3l14-3h3l3-1 11-1 15-3-1-1-3-1c0-1-1-2-4-2v-1l3-1h8l-1-1h-4v-2h3l1-1-6-1a252 252 0 0 1-44 2v-1l12-24-1 3v1l2-1c3-7 5-10 7-10 9-1-1-2 17-5l2 1 31-5v-1l-7 1v-1l2-1v1l1-1h3l6-1h4l2-2v-1h-4l1-1 8-1 4-1v1l2-1-1 4h-1l-1-1-24 61c-1 5-3 8-4 9l1 1c0 2 0 5-2 7-4 13-7 19-8 20l1 6-1 1h-1l-2-2c-2 2-3 4-3 7h1c1-1 2-2 1-3h3l-1 3 1 1-2 3 1 1 3 1 3-1h13l4-2h10l1-1v1h8v1h-3v1l2-1 1 1-3 1-1-1-2 1h-2l1 1h1l9-1 3-1v1l2-1h3l7-1v-1 1l9-2h4l-1-1h-6l-7 1v-1h4l1-1h1c5 0 7 1 33-4l2-4a2 2 0 0 1-2 0l-7 1-1-1h4l4-1zm-186 3h-2l3-8h1l-2 8zm2-9l1-1-1 1zm24 19h-3 3zm-4-1c0 1-1 2-3 2h-4l-1-1 8-1zm24-110l-2 1v-1l1-1h2l-1 1zm27-5h1v1h-2l1-1zm-7 2h-2l6-2 2 1v1h-6zm4 10l4-1v1h-4zm4-4h2-2zm1-7h-1l1-1 5-1v1l-5 1zm2 11v-2h2l2 1-4 1zm13-18l-3 1h-5l8-1zm-3 12v1h-3l-1-1h4zm6 3l-2-1-4 1h-2l-2-1 4 1 7-2h4v1l-5 1zm39-10h1l4-3c-1 6-3 11-6 13l-2-1 3-9zm-7 11h1l-2 2v-1l1-1zm-4 10l3-7v1c0 4-1 6-2 6v2l-1 3h-1v-3l1-2zm-1 6l-2 4v-2l2-2zm-31 88h1v1l-1-1zm44 1h-3l6-1v1h-3zm-3-1zm0-7l-3 1v-1h3l2-1 1 1 4-1 1 1h-8zm11-1h-3 3s1 0 0 0zm1 0v-1h1v1h-1zm3 0v-1h1c1-1 1 0 2 1h-3zm5-1l2-1v1h-2zm2 0l1-1 1 1v-1 1h-2zm-28 12v-1h-1v1h1zm66-17v-1 1l-1 1h2v-1h-1zm3 2v1h2l-2-1zm-3-2z"/>
    <path d="M361 161v1h2v-3l-2 2zm-12-28v-1h-1v1h1zm-34 65l-10-12c0-2 2-4 7-6l12-11c3-4 5-10 5-18v-2c0-5-4-10-12-13-5-3-13-5-25-5-9 1-22 4-38 10l-14 10v1l1-1 1 1 1-1h1v1l-11 8 1 1h-1l-1-1-1 1 1 2-2-1-4 3v-3c3-10 4-19 5-26v-1l-5-4v-2a706 706 0 0 1-63 76h-4v2h1l-3 1-6 2h-3 1l-4 1h-4v1-1h-3l-13-15c0-2 3-5 9-8l16-14c4-5 6-13 7-23v-3c-1-7-6-13-16-18-6-4-17-6-32-6-13 1-30 5-51 13l-19 13v1l2-1 1 1 2-1v1l-13 11v1l-2-1-2 1v1l2 1h-2c-3 0-6 2-9 6l1 1 4-3v2l-1 1 1 2a51 51 0 0 1 10-8l3 1h1c10-7 19-12 29-15v1l-3 4v2c1 2-4 13-13 33A882 882 0 0 1 1 299l6-3h1v1h1l2-1 1 1v1l-2 6-5 10h2l12-18c16-4 28-9 37-13 8-1 14-3 19-7v-1l-3 1h-1c6-1 10-3 13-5l27-19c13-10 21-19 25-27l2-1h3v-1h3l5-1h2l1 1-22 35-5 6-2 8v-1l3-1-1 4 1 1-1 1h2c1-1 2-2 1-3h4c-1 1-2 1-2 3h1c8-9 27-38 42-58 0-2 8-5 25-9 1 3-1 9-4 19l-3 10c-2 8-4 12-3 13l-6 19c-4 10-7 21-9 32h2v-1h1v-1h2c1 0 2-1 2-3 0-3 1-4 2-4l3-10 3-10c2-8 4-12 5-13v1l-2 5c-2 12-5 22-8 29l1 4a903 903 0 0 0 36-99l-1-1 4-2-4-2 6-28 3-2v2h-2l2 2 7-6 2 1h1c8-6 15-9 22-12v1l-3 3 1 2-10 25a679 679 0 0 1-37 81l4-2h1v1h1l1-1 1 1v1l-2 4-3 7v1h1l9-14 28-10c7-1 11-3 15-5v-1l-3 1v-1c4 0 8-1 9-3l21-15c15-10 22-21 21-30zm-3 0l1 4-2 2v-7l1 1zM26 167h-1v-1h3v1h-2zM13 295l-4-1v-2l1-1c1 0 2 0 2 2l3-4h2c-1 4-2 6-4 6zm136-143c0 1-2-1-3-5l-1-2c2 0 3 2 4 6v1zm-1-14l-1 2-18-8c12 0 18 2 19 6zm-79 67l-2 1v-2h2v1zm-2-40h1v2l-2 3v-2l1-3zm-5 13v3h-1v-3h1zm-3 5h1l-1 3h-1l1-3zm-2 6h1v1l-2 2h-1v-1l2-2zm-2 6l-1 3-1-3h2zm-21 60l-3 7v-1c0-2 0-4 3-6zm-4 9l-1 2-1-1 2-1zm-2 17h2l1 1h-2l-2 1 1-2zm56-17c-11 5-17 9-19 11-12 4-18 7-18 8l-21 9-3-1c0-2 1-4 3-5l5 1 10-4v-1h-4l12-5h2l-6 3c0 1 0 2 1 1l4-2c5-1 18-8 40-21v1l-6 5zm-33 11c3 0 6-2 8-4l2 1-9 4h-1v-1zm54-41l-17 13-20 12c-20 11-32 17-37 17l26-54c8-1 19-4 35-10l4-1c8-1 15 1 19 5v2c-3 9-7 14-10 16zm-33-19h3v1h-3v-1zm38-6h2c2 0 3 1 3 2v1c-2 0-4-1-5-3zm5-31c-1 3-6 6-14 11-3 0-12 4-29 11a5 5 0 0 0-2 0v-1c-1-3 0-6 3-9 1-7 2-11 4-12l14-31c0-2 3-3 9-4l2-1v2l11-1c11-1 17 1 17 6h1v-3h1c4 2 5 4 6 6l-3 7-2-2h-1v4c-6 8-10 12-12 13l-5 4zm9 22l-3-1v-2h1l3 2-1 1zm9 11l2 1h-1l-1 1v-2zm0 5v-1h2l-2 1zm4 4l6-1-6 2v-1zm6 2l-6 1 5-2h2v1h-1zm5-1l-1-1h1l1 1h-1zm14-15l2-1v1h-2zm15 91v-2l1 1v1h-1zm10-87h-1l-4 1-1 1-2-1 7-2 3-1v1l-2 1zm5-1v-1l1-1 5-1v1l-6 2zm1-10h-3c-1-1 3-2 11-4h1v1l-9 3zm13-15c0 6-2 10-6 11v-1l-4 1-1 1h-2v-2l14-20 1 1c1 1 0 5-2 9zm24-20h-1v-1h2v1h-1zm-10 97l-3-1v-1l1-1 1 1 3-3 1 1-3 4zm103-108l-3-5v-1l3 5v1zm-1-11v1l-14-6c9 1 14 2 14 5zm-59 51h-2v-1h2v1zm-2-31h1v2l-2 2v-1l1-3zm-4 10v2l-1-2h1zm-2 4h1l-2 2 1-2zm-2 5h1l-1 2h-1v-1l1-1zm-1 4l-1 2v1-3h1zm-17 46c0 3-1 5-2 5v-1l2-4zm-3 6v2l-1-1 1-1zm0 14l1-1v1l-1 1h-1l1-1zm42-14l-15 9c-9 3-13 5-13 6-8 3-14 5-16 7l-3-1 2-4 5 1 7-3v-1l-3 1 9-5h1v1l-4 2 1 1 3-2c4-1 14-6 30-16v1l-4 3zm-25 9l6-3 1 1-7 3v-1zm41-32l-13 11-15 9-28 13h-1l20-41c6-1 15-3 27-8l3-1c6 0 11 1 14 4v2c-2 6-5 10-7 11zm-25-14h2v1h-2v-1zm29-4l1-1 2 2v1l-3-2zm3-23l-10 8-22 8h-2v-1c0-2 0-4 2-7l3-9 11-23c0-2 2-3 7-4h1v2l9-2c8 0 12 1 13 5h1l-1-2h1c3 1 4 3 4 5 0 1 0 3-2 5l-1-2h-1v3c-4 7-7 10-9 10l-4 4zm5 15v-1h1l2 1-1 1-2-1zm-176 92h-1l-1 1 1 1 1-1v-1zm-4-7l1-1-1 1zm27-51h1-1zm0-13h1v-1h-1v1zm267 39l-3-1v2l15-2v-1l-12 2zm14-2v1-1zm64-8v1h2v-1h-2zm-2 0c-12 3-13 2-15 2v1h2l13-2v-1zm-69-17h-1l-1 4 2-4zm-14-7h-1v1l1-1zm30 31v-1 1zm62-14h1l1-1-1-1-6 2v-1h-3l-1-1h-1l-4 1v-1l-2 1h-5v1h5l-10 2-1-1v1l-1-1 2-1 2 1 2-1v-1l-11 1v-1l9-2 1 1a2 2 0 0 1 1-1h1c3 0 4 1 11-1h2l1-2v-1c-11 3-14 2-17 3h-4l-1 1v-1h-1l-9 2-1-1c-5 1-3 2-10 2l-1 1-1-1-4 1h-3l-4 1v-1l-1 1h-5l-7 1h-3l-5-1c0-3 1-5 2-5v1h1l1-2v-1l-1 1v-3l2-4v1h1v-2l2-1h-2v-2l4-10h1l1-1h-1a4 4 0 0 1 1-2l2-5 3-6c3-4 6-13 10-25 9-23 8-25 9-30h-1v2l-2-1 3-7 1 3h1l1-4-1-1-1 1v-5h-1l-1-2h-5l-1-1 4-2h5v-1h-6l-1 1v-1l-44 4h-7l-4 1h-6a733 733 0 0 0-2 2h-1l-18 2h-3l-4 1-9 4 1 1 2-1h3l-1 3c-3 1-4 3-5 5l-6 4v1h1l1-1 1 2v2l-21 45-19 46c-4 1-7 3-7 5l3 1v1l-1 2 1 2 9 3v-1l-1 8h1l3-7h1l2 2-8 18 1 1 11-23 38-4 1-1v1h2l1-1v1l14-1c4-1 5-2 5-4l6-1h2l7-1 2-4v-1l-4 1h-8l-9 1h-4l-3-1-1 1h-2c12-2 18-3 18-5l1 1 4-1v-1l-30 1h-4l-2 1-1-1-8 2h-18a149 149 0 0 1 17-39h2l5-1h2l14-3h3l4-1 10-1 15-3v-1l-3-1c0-1-2-2-5-2v-1l3-1h8v-1h-5v-2h3l1-1-6-1a252 252 0 0 1-43 2l-1-1c7-16 11-24 13-24l-1 3v1l1-1c3-7 5-10 7-10 9-1-1-2 18-5l1 1 31-5v-1l-7 1v-1l2-1v1l2-1h2l6-1h5l1-2v-1h-4l1-1 8-1 4-1v1l2-1h1l-2 4h-1l-1-1c-10 27-14 40-23 61l-5 9 1 1c1 2 0 5-2 7l-8 20 1 6-1 1h-1l-2-2-3 7h1l2-3h3l-1 3v1l-1 3v1l4 1 3-1h12l4-2h11v-1 1h8v1h-2v1l2-1v1l-3 1-1-1-2 1h-2l1 1h2l8-1 3-1 1 1 1-1h3l7-1v-1 1l10-2h3v-1h-7l-7 1v-1h4l2-1c6 0 8 1 33-4l2-4a2 2 0 0 1-1 0l-7 1-1-1h4l4-1h-1zm-186 3h-1c-1-1 0-3 2-8h2l-3 8zm2-9l2-1-2 1zm24 19h-3 3zm-3-1c0 1-1 2-3 2h-5v-1l8-1zm23-110l-1 1v-1l1-1h2l-2 1zm27-5h1v1h-2l1-1zm-6 2h-3l7-2 1 1v1h-5zm3 10l4-1v1h-4zm5-4h2-2zm0-7v-1l5-1v1l-5 1zm3 10v-1h2l1 1h-3zm12-17l-2 1h-6l8-1zm-2 12v1h-4v-1h4zm6 3l-3-1-3 1h-3l-1-1h3l8-1h3v1l-4 1zm38-10h1l5-3c-2 6-4 10-7 13l-2-1 3-9zm-6 11l-2 2v-1l2-1zm-5 10l3-7v1c0 4-1 6-2 6v2l-1 3h-1v-3l1-2zm-1 6l-1 4h-1v-2l2-2zm-31 88h1v1l-1-1zm44 1h-3l6-1v1h-3zm-3-1zm0-7l-3 1v-1h3l3-1v1l4-1 1 1h-8zm12-1h-4l3-1v1h1zm0 0v-1h1l1 1h-2zm3 0v-1h2l1 1h-3zm5-1v-1h2v1h-2zm3 0v-1l1 1v-1l1 1h-2zm37-5zm1 0l-1-1v1l-1 1h2v-1zm2 2v1h2l-2-1z" fill="#F9DC3E"/>
</svg>