<svg viewBox="0 0 130 18" xmlns="http://www.w3.org/2000/svg"><defs><linearGradient x1="-36.9%" y1="134.9%" x2="129.4%" y2="-27.7%" id="a"><stop stop-color="#00AEFF" offset="0%"/><stop stop-color="#3369E7" offset="100%"/></linearGradient></defs><g fill="none" fill-rule="evenodd"><path d="M59.4 0h13.3a2.4 2.4 0 0 1 2.4 2.4v13.2a2.4 2.4 0 0 1-2.4 2.4H59.4a2.4 2.4 0 0 1-2.4-2.4V2.4A2.4 2.4 0 0 1 59.4 0z" fill="url(#a)"/><path d="M66.3 4.6a5 5 0 0 0 0 10.2 5 5 0 0 0 0-10.1zm0 8.6a3.6 3.6 0 1 1 3.6-3.6 3.6 3.6 0 0 1-3.6 3.6zm0-6.4v2.7h.1l2.4-1.2v-.1a3 3 0 0 0-2.4-1.5h-.1zm-3.4-2l-.3-.3a.8.8 0 0 0-1 0L61 5a.8.8 0 0 0 0 1.1l.3.3h.2A6 6 0 0 1 63 5v-.2zm5-.8v-.6a.8.8 0 0 0-.8-.8h-1.8a.8.8 0 0 0-.8.8V4l.2.2a5.7 5.7 0 0 1 1.6-.3l1.5.2a.1.1 0 0 0 .1 0z" fill="#FFF"/><path d="M102.2 13.8c0 1.4-.4 2.5-1.2 3.2-.7.6-1.9 1-3.4 1l-2.7-.3.4-1.7 2.3.2c.9 0 1.5-.2 1.9-.6.3-.3.5-.8.5-1.5v-.4a6.4 6.4 0 0 1-.8.4 4.2 4.2 0 0 1-1.2.1 4.5 4.5 0 0 1-1.6-.3 3.4 3.4 0 0 1-1.3-.8 3.7 3.7 0 0 1-.8-1.3 7.8 7.8 0 0 1 0-4.3 4 4 0 0 1 1-1.4 4.1 4.1 0 0 1 1.4-1 5.3 5.3 0 0 1 2-.3c.6 0 1.3 0 1.9.2a15.9 15.9 0 0 1 1.6.3v8.5zm-6-4.2c0 .8.2 1.8.6 2.3.4.4.9.6 1.5.6.4 0 .7 0 1-.2a2.8 2.8 0 0 0 .7-.3V6.7a8.5 8.5 0 0 0-1.4-.2c-.8 0-1.4.3-1.8.8-.4.5-.6 1.4-.6 2.3zm16.1 0c0 .7 0 1.2-.3 1.8a4.4 4.4 0 0 1-.9 1.5 4 4 0 0 1-1.4 1l-1.8.4-1.8-.4a4 4 0 0 1-1.4-1 4.5 4.5 0 0 1-1-1.5 5 5 0 0 1-.2-1.8c0-.8 0-1.5.3-2 .2-.6.5-1.1.9-1.6l1.4-1a4.5 4.5 0 0 1 1.8-.3 4.7 4.7 0 0 1 1.8.4c.5.2 1 .5 1.4 1 .4.4.7.9.9 1.5.2.5.3 1.2.3 2zm-2.2 0c0-1-.2-1.7-.6-2.3a2 2 0 0 0-1.6-.8 2 2 0 0 0-1.7.8c-.4.6-.6 1.3-.6 2.3 0 .9.2 1.5.6 2 .4.6 1 .9 1.7.9a2 2 0 0 0 1.6-.8c.4-.6.6-1.2.6-2.1zm7 4.7c-3.5 0-3.5-2.9-3.5-3.3V1l2.1-.4v10c0 .2 0 1.9 1.4 1.9v1.8zm3.8 0h-2.2V5l2.2-.4v9.6zm-1.1-10.6c.7 0 1.3-.6 1.3-1.3 0-.7-.6-1.3-1.3-1.3-.7 0-1.3.6-1.3 1.3 0 .7.6 1.3 1.3 1.3zm6.4 1c.7 0 1.3.1 1.8.3.5.2.9.4 1.2.7.3.3.5.8.6 1.2l.2 1.5v5.5a25.2 25.2 0 0 1-1.5.2l-2.3.2a6.8 6.8 0 0 1-1.5-.2 3.2 3.2 0 0 1-1.2-.5 2.5 2.5 0 0 1-.7-.9c-.2-.4-.3-.9-.3-1.4 0-.6 0-.9.3-1.3l.8-.8a3.6 3.6 0 0 1 1.3-.5 7 7 0 0 1 2.2-.1l.8.1v-.3l-.1-.7a1.5 1.5 0 0 0-.3-.6l-.6-.4a2.5 2.5 0 0 0-.9-.2 7.8 7.8 0 0 0-2.4.4l-.2-1.7 1.2-.3a9.3 9.3 0 0 1 1.6-.2zm.2 7.8l1.5-.1v-2.2a5.1 5.1 0 0 0-2-.1c-.2 0-.4 0-.6.2a1.2 1.2 0 0 0-.5.4c-.1.1-.2.2-.2.5 0 .5.2.8.5 1 .3.2.8.3 1.3.3zM84.1 4.8c.7 0 1.3 0 1.8.3.5.1.9.4 1.2.7l.6 1.2.1 1.4V14a25.2 25.2 0 0 1-1.4.3l-2.3.1a6.8 6.8 0 0 1-1.5-.1 3.2 3.2 0 0 1-1.2-.5 2.5 2.5 0 0 1-.8-1l-.2-1.4c0-.5 0-.8.3-1.2.2-.4.5-.7.8-.9a3.6 3.6 0 0 1 1.2-.5 7 7 0 0 1 2.2 0h.9v-.3l-.1-.7a1.5 1.5 0 0 0-.3-.6l-.6-.3a2.5 2.5 0 0 0-1-.2 7.8 7.8 0 0 0-2.3.4l-.2-1.8 1.2-.3a8.9 8.9 0 0 1 1.6-.1zm.2 7.7h1.5v-2.2a5.1 5.1 0 0 0-2-.1l-.7.1a1.2 1.2 0 0 0-.4.4l-.2.6c0 .5.2.7.5 1l1.3.2zm8.7 1.8c-3.5 0-3.5-2.9-3.5-3.3V1l2.1-.4v10c0 .2 0 1.9 1.4 1.9v1.8z" fill="#182359"/><path d="M5 11a2 2 0 0 1-.7 1.7c-.5.4-1.2.6-2.1.6a5 5 0 0 1-2.2-.4v-1.3a6 6 0 0 0 2.3.6c.5 0 .9-.1 1-.3a1 1 0 0 0 .5-.8 1 1 0 0 0-.4-.7A5 5 0 0 0 2 9.6C1.3 9.3.8 9 .5 8.6.2 8.3.1 7.8.1 7.3c0-.7.2-1.2.7-1.5.5-.4 1-.6 1.9-.6.7 0 1.5.2 2.2.5l-.4 1c-.7-.3-1.3-.4-1.9-.4-.4 0-.7 0-1 .3a.9.9 0 0 0-.2.7v.5l.5.4 1 .5 1.3.7c.3.2.5.4.6.7.2.3.2.6.2 1zm4 2.3c-1 0-1.6-.3-2.2-.8a3 3 0 0 1-.7-2.3c0-1 .2-1.7.7-2.3.5-.5 1.1-.8 2-.8.8 0 1.4.2 1.8.7.5.5.7 1.2.7 2v.7h-4c0 .5.2 1 .5 1.3.3.3.7.5 1.3.5l1-.1a5.1 5.1 0 0 0 1-.4v1a3.9 3.9 0 0 1-1 .4 5.7 5.7 0 0 1-1.1 0zM8.8 8c-.4 0-.7 0-1 .3s-.4.7-.4 1.2H10c0-.5-.1-.9-.4-1.2-.2-.2-.5-.3-1-.3zm7.7 5l-.3-.8-.9.8-1.1.2c-.6 0-1-.2-1.4-.5-.3-.3-.5-.8-.5-1.3 0-.7.3-1.1.7-1.4a4 4 0 0 1 2-.5h1.1v-.4c0-.4 0-.7-.2-.8-.2-.2-.5-.3-.9-.3l-.8.1a6.7 6.7 0 0 0-.9.3l-.4-.9a4.4 4.4 0 0 1 1.1-.4 4.9 4.9 0 0 1 1 0c.8 0 1.4 0 1.8.4.4.3.6.9.6 1.6v4h-1zm-2-.8c.5 0 1-.1 1.2-.4.3-.2.4-.6.4-1v-.6h-.8c-.5 0-1 .2-1.3.4s-.4.4-.4.8l.3.6.7.2zm7.6-5.2h.7l-.2 1.2a2.4 2.4 0 0 0-.5 0c-.5 0-1 .1-1.2.5-.3.3-.5.7-.5 1.3v3H19V7.3h1l.2 1 .8-.8a1.8 1.8 0 0 1 1-.3zm4.2 6.2c-1 0-1.6-.3-2-.8-.5-.5-.8-1.3-.8-2.3 0-1 .3-1.7.8-2.3.4-.5 1.1-.8 2-.8a4 4 0 0 1 1.8.4l-.4 1-1.3-.3c-1 0-1.6.6-1.6 2 0 .7.1 1.2.4 1.5.3.3.6.5 1.1.5a3.2 3.2 0 0 0 1.6-.4v1a2.5 2.5 0 0 1-.7.4 4.4 4.4 0 0 1-1 0zm8.2-.1h-1.2V9.5c0-.5-.1-.8-.3-1-.2-.2-.5-.4-.9-.4-.5 0-.9.2-1.1.5-.3.3-.4.9-.4 1.6v3h-1.3V4.8h1.3V8a1.8 1.8 0 0 1 .7-.7l1-.2c1.5 0 2.2.7 2.2 2.2v3.9zm7.7-6a2 2 0 0 1 1.7.7c.4.6.6 1.3.6 2.3 0 1-.2 1.7-.6 2.3a2 2 0 0 1-1.7.8 2 2 0 0 1-1.8-.8l-.3.7h-1V4.8h1.3V8a2 2 0 0 1 1.8-.9zm-.3 1c-.5 0-1 0-1.1.4-.3.3-.4.8-.4 1.5 0 .8.1 1.3.4 1.6.2.4.6.5 1 .5.5 0 .9-.1 1.1-.5.2-.4.4-.9.4-1.5 0-1.4-.5-2-1.4-2zm3.2-1h1.4l1.2 3.4.4 1.3.2-.7 1.3-4H51L48.5 14c-.5 1.3-1.3 1.9-2.3 1.9h-.9v-1h.7c.6 0 1-.4 1.3-1l.2-.6-2.4-6z" fill="#1D3657"/></g></svg>
