<svg xmlns="http://www.w3.org/2000/svg" width="1em" height="1em" viewBox="0 0 256 256"><path fill="currentColor" d="M71.68 97.22L34.74 128l36.94 30.78a12 12 0 1 1-15.36 18.44l-48-40a12 12 0 0 1 0-18.44l48-40a12 12 0 0 1 15.36 18.44Zm176 21.56l-48-40a12 12 0 1 0-15.36 18.44L221.26 128l-36.94 30.78a12 12 0 1 0 15.36 18.44l48-40a12 12 0 0 0 0-18.44ZM164.1 28.72a12 12 0 0 0-15.38 7.18l-64 176a12 12 0 0 0 7.18 15.37a11.79 11.79 0 0 0 4.1.73a12 12 0 0 0 11.28-7.9l64-176a12 12 0 0 0-7.18-15.38Z"/></svg>